# xmcd CD database file
#
# Track frame offsets:
#	150
#	18110
#	32740
#	49389
#	68212
#	85675
#	97874
#	112807
#	132518
#	152679
#	174129
#	190545
#	209382
#	233800
#
# Disc length: 3459 seconds
#
# Revision: 1
# Processed by: cddbd v1.5.2PL0 Copyright (c) Steve Scherf et al.
# Submitted via: CDex 1.70beta2
#
DISCID=a50d810e
DTITLE=Various Artist - the very best of the coffee lounge [CD 1)
DYEAR=2008
DGENRE=Jazz
TTITLE0=The Bird -Dodge
TTITLE1=Jive On Mambo -James Sherlock Quintet
TTITLE2=Silent Moments -Prince Alex
TTITLE3=Brush Song -Marco Polo IVX
TTITLE4=Five - Four -Funkservice International
TTITLE5=Freedom Jazz Dance -Dodge
TTITLE6=Zamisdat -Williamson, McAll, Rex and Jordan
TTITLE7=Tamarindo -High Time
TTITLE8=Looze Blooze -Sam Keevers Trio
TTITLE9=Move On -Dubble Dub
TTITLE10=Wrap Your Troubles In Dreams -James Sherlock Quintet
TTITLE11=Populex -Populex
TTITLE12=Listen Here -Decoy
TTITLE13=Meaning In Sights Unseen -Browne Haywood Stevens
EXTD=YEAR: 2008
EXTT0=
EXTT1=
EXTT2=
EXTT3=
EXTT4=
EXTT5=
EXTT6=
EXTT7=
EXTT8=
EXTT9=
EXTT10=
EXTT11=
EXTT12=
EXTT13=
PLAYORDER=
